<?xml version="1.0" encoding="UTF-8" standalone="no"?>
<!-- Created with Inkscape (http://www.inkscape.org/) -->

<svg
   xmlns:dc="http://purl.org/dc/elements/1.1/"
   xmlns:cc="http://creativecommons.org/ns#"
   xmlns:rdf="http://www.w3.org/1999/02/22-rdf-syntax-ns#"
   xmlns:svg="http://www.w3.org/2000/svg"
   xmlns="http://www.w3.org/2000/svg"
   xmlns:sodipodi="http://sodipodi.sourceforge.net/DTD/sodipodi-0.dtd"
   xmlns:inkscape="http://www.inkscape.org/namespaces/inkscape"
   id="svg2"
   version="1.1"
   xml:space="preserve"
   sodipodi:docname="logo.svg"
   inkscape:export-filename="out.png"
   inkscape:export-xdpi="23"
   inkscape:export-ydpi="23">
 
  <g
     id="g10"
     transform="matrix(1.25,0,0,-1.25,0,79.6875)"><g
       transform="translate(0,+52.55625)"><g
         transform="scale(0.01,0.01)"
         id="g3034"><path
           id="path3036"
           style="fill:#ffffff;fill-opacity:1;fill-rule:nonzero;stroke:none"
           d="m 2940,82.5 c -180,0 -180,0 -180,0 0,465 0,465 0,465 180,0 180,0 180,0 97.5,0 180,-97.5 180,-217.5 0,-60 -15,-247.5 -180,-247.5 l 0,0 z m 0,547.5 c -247.5,0 -247.5,0 -247.5,0 -7.5,0 -15,-7.5 -15,-15 0,-600 0,-600 0,-600 0,-7.5 7.5,-15 22.5,-15 240,0 240,0 240,0 157.5,0 255,127.5 255,330 0,165 -112.5,300 -255,300 l 0,0"
            /><path
           id="path3038"
           style="fill:#ffffff;fill-opacity:1;fill-rule:nonzero;stroke:none"
           d="M 292.5,360 C 180,360 180,360 180,360 c -60,0 -105,52.5 -105,97.5 0,37.5 37.5,90 105,90 240,0 240,0 240,0 15,0 15,0 15,0 0,7.5 0,7.5 0,7.5 0,0 7.5,7.5 7.5,15 0,45 0,45 0,45 0,7.5 -7.5,15 -22.5,15 -240,0 -240,0 -240,0 C 90,630 30,577.5 7.5,510 l 0,0 C 0,495 0,472.5 0,457.5 c 0,-82.5 75,-180 180,-180 112.5,0 112.5,0 112.5,0 60,0 90,-52.5 90,-97.5 0,-37.5 -22.5,-97.5 -90,-97.5 -262.5,0 -262.5,0 -262.5,0 -15,0 -15,0 -15,0 0,-7.5 0,-7.5 0,-7.5 0,0 0,0 0,-7.5 C 15,15 15,15 15,15 15,7.5 15,7.5 15,7.5 15,0 15,0 15,0 292.5,0 292.5,0 292.5,0 375,0 465,67.5 465,180 c 0,45 -15,82.5 -45,120 -30,37.5 -75,60 -127.5,60 l 0,0"
            /><path
           id="path3040"
           style="fill:#ffffff;fill-opacity:1;fill-rule:nonzero;stroke:none"
           d="m 1530,622.5 c 0,7.5 0,7.5 -7.5,7.5 0,7.5 0,7.5 -45,7.5 -45,0 -45,0 -45,-7.5 -7.5,0 -7.5,0 -7.5,-7.5 C 1260,15 1260,15 1260,15 c 0,-7.5 0,-7.5 0,-7.5 7.5,0 7.5,-7.5 15,-7.5 37.5,0 37.5,0 37.5,0 15,0 15,0 15,0 7.5,0 15,7.5 15,15 135,510 135,510 135,510 135,-517.5 135,-517.5 135,-517.5 7.5,0 7.5,-7.5 15,-7.5 0,0 7.5,0 15,0 45,0 45,0 45,0 0,0 7.5,0 7.5,7.5 0,7.5 0,7.5 0,7.5 l -165,607.5"
            /><path
           id="path3042"
           style="fill:#ffffff;fill-opacity:1;fill-rule:nonzero;stroke:none"
           d="m 2385,637.5 c -52.5,0 -52.5,0 -52.5,0 -7.5,-7.5 -7.5,-7.5 -7.5,-7.5 -7.5,0 -7.5,0 -7.5,0 0,-480 0,-480 0,-480 C 2235,300 2040,622.5 2040,630 c 0,0 0,0 -7.5,0 l 0,0 c -97.5,0 -97.5,0 -97.5,0 l 0,0 c 0,0 -7.5,0 -7.5,-7.5 0,-607.5 0,-607.5 0,-607.5 0,-7.5 7.5,-15 15,-15 l 0,0 c 45,0 45,0 45,0 15,0 22.5,7.5 22.5,15 0,517.5 0,517.5 0,517.5 300,-525 300,-525 300,-525 l 0,0 c 7.5,0 7.5,-7.5 7.5,-7.5 67.5,0 67.5,0 67.5,0 7.5,0 7.5,0 15,7.5 0,7.5 0,7.5 0,7.5 0,600 0,600 0,600 0,15 -7.5,22.5 -15,22.5 l 0,0"
           /><path
           id="path3044"
           style="fill:#ffffff;fill-opacity:1;fill-rule:nonzero;stroke:none"
           d="m 3480,637.5 c -52.5,0 -52.5,0 -52.5,0 -7.5,0 -7.5,-7.5 -15,-15 l 0,0 c 0,-600 0,-600 0,-600 0,-7.5 0,-7.5 0,-7.5 l 0,0 c 7.5,-7.5 15,-15 15,-15 52.5,0 52.5,0 52.5,0 7.5,0 15,7.5 15,15 0,600 0,600 0,600 0,15 -7.5,22.5 -15,22.5 l 0,0"
           /><path
           id="path3046"
           style="fill:#ffffff;fill-opacity:1;fill-rule:nonzero;stroke:none"
           d="m 4185,637.5 c -465,0 -465,0 -465,0 -7.5,0 -15,-7.5 -15,-15 0,-52.5 0,-52.5 0,-52.5 0,-7.5 7.5,-15 15,-15 187.5,0 187.5,0 187.5,0 0,-540 0,-540 0,-540 0,-7.5 7.5,-15 22.5,-15 45,0 45,0 45,0 7.5,0 15,7.5 15,15 0,540 0,540 0,540 195,0 195,0 195,0 7.5,0 15,7.5 15,15 0,52.5 0,52.5 0,52.5 0,7.5 -7.5,15 -15,15 l 0,0"
           /><path
           id="path3048"
           style="fill:#ffffff;fill-opacity:1;fill-rule:nonzero;stroke:none"
           d="m 1080,82.5 c -232.5,0 -232.5,0 -232.5,0 -75,0 -157.5,75 -157.5,232.5 0,165 97.5,240 157.5,240 225,0 225,0 225,0 7.5,0 15,0 15,15 0,45 0,45 0,45 0,7.5 0,7.5 -7.5,15 l 0,0 c -232.5,0 -232.5,0 -232.5,0 C 750,630 615,532.5 615,315 615,97.5 727.5,0 847.5,0 c 225,0 225,0 225,0 15,0 15,0 15,0 0,7.5 0,7.5 0,7.5 7.5,7.5 7.5,7.5 7.5,7.5 0,52.5 0,52.5 0,52.5 0,7.5 -7.5,15 -15,15 l 0,0"
            /></g></g></g></svg>
